<svg xmlns="http://www.w3.org/2000/svg" viewBox="0 0 107.27 75.76"><defs><style>.cls-1{fill:#303030;}.cls-2{fill:#4d4d4d;}.cls-3{opacity:0.2;isolation:isolate;}</style></defs><title>2-buttons</title><g id="Camada_2" data-name="Camada 2"><g id="Camada_1-2" data-name="Camada 1"><circle class="cls-1" cx="20" cy="47.76" r="20"/><path class="cls-2" d="M20,35.76a20,20,0,0,1,19.6,16,20,20,0,1,0-39.2,0A20,20,0,0,1,20,35.76Z"/><circle class="cls-3" cx="20" cy="55.76" r="20"/><circle class="cls-1" cx="87.27" cy="20" r="20"/><path class="cls-2" d="M87.27,8a20,20,0,0,1,19.6,16,20,20,0,1,0-39.6-4,20.71,20.71,0,0,0,.4,4A20,20,0,0,1,87.27,8Z"/><circle class="cls-3" cx="87.27" cy="28" r="20"/></g></g></svg>