<svg xmlns="http://www.w3.org/2000/svg" viewBox="0 0 151 184.5"><defs><style>.cls-1{fill:#1a1a1a;}.cls-2{fill:#333;}.cls-3{fill:#363636;}.cls-4{fill:#4d4d4d;}.cls-5{fill:none;stroke:#1a1a1a;stroke-miterlimit:10;stroke-width:3px;}.cls-6{opacity:0.2;}</style></defs><title>analogico</title><g id="Camada_2" data-name="Camada 2"><g id="Camada_1-2" data-name="Camada 1"><ellipse class="cls-1" cx="75.5" cy="75" rx="75.5" ry="74.5"/><circle class="cls-2" cx="75.5" cy="75" r="70.5"/><path class="cls-3" d="M75.5,60.5A70.53,70.53,0,0,1,140.21,103a70.5,70.5,0,1,0-129.42,0A70.53,70.53,0,0,1,75.5,60.5Z"/><path class="cls-4" d="M75.5,15.5a70.5,70.5,0,0,1,70.27,65c.14-1.82.23-3.65.23-5.5A70.5,70.5,0,0,0,5,75c0,1.85.09,3.68.23,5.5A70.5,70.5,0,0,1,75.5,15.5Z"/><path class="cls-1" d="M75.5,18.5A56.5,56.5,0,1,1,19.24,80.23C19.08,78.5,19,76.74,19,75A56.57,56.57,0,0,1,75.5,18.5m0-3A59.5,59.5,0,0,0,16,75c0,1.85.08,3.69.25,5.5a59.5,59.5,0,1,0,59.25-65Z"/><line class="cls-5" x1="5.5" y1="80" x2="17.5" y2="80"/><line class="cls-5" x1="133.5" y1="80" x2="148.5" y2="80"/><g class="cls-6"><circle cx="75.5" cy="126" r="58.5"/></g><line class="cls-5" x1="75.5" y1="132" x2="75.5" y2="148"/><line class="cls-5" x1="75.5" y1="17" x2="75.5"/></g></g></svg>