<svg xmlns="http://www.w3.org/2000/svg" viewBox="0 0 92.63 101.96"><defs><style>.cls-1{opacity:0.2;}.cls-2{fill:#303030;}.cls-3{fill:#4d4d4d;}</style></defs><title>arrow-button_1</title><g id="Camada_2" data-name="Camada 2"><g id="Camada_1-2" data-name="Camada 1"><rect class="cls-1" x="30.75" y="9.33" width="31.13" height="92.63"/><polygon class="cls-1" points="30.75 38.64 0 38.64 0 69.77 30.75 69.77 30.8 56.88 30.75 56.88 30.75 38.64"/><polygon class="cls-1" points="61.88 38.64 61.88 56.88 61.88 69.77 92.63 69.77 92.63 38.64 61.88 38.64"/><rect class="cls-2" x="30.75" width="31.13" height="92.63"/><rect class="cls-3" x="30.75" width="31.13" height="6.5"/><rect class="cls-2" x="30.75" width="31.13" height="92.63" transform="translate(92.63) rotate(90)"/><rect class="cls-3" y="30.75" width="31.13" height="6.5"/><rect class="cls-3" x="61.5" y="30.75" width="31.13" height="6.5"/><polygon class="cls-3" points="6.98 48.31 14.73 43.84 22.48 39.36 22.48 48.31 22.48 57.26 14.73 52.79 6.98 48.31"/><polygon points="4.74 48.31 12.49 43.84 20.24 39.36 20.24 48.31 20.24 57.26 12.49 52.79 4.74 48.31"/><polygon class="cls-3" points="77.25 52.79 69.5 57.26 69.5 48.31 69.5 39.36 77.25 43.84 85 48.31 77.25 52.79"/><polygon points="79.49 52.79 71.74 57.26 71.74 48.31 71.74 39.36 79.49 43.84 87.24 48.31 79.49 52.79"/><polygon class="cls-3" points="41.83 76 37.36 68.25 46.31 68.25 55.26 68.25 50.78 76 46.31 83.75 41.83 76"/><polygon points="41.83 78.24 37.36 70.49 46.31 70.49 55.26 70.49 50.78 78.24 46.31 85.99 41.83 78.24"/><polygon class="cls-3" points="46.31 12.49 50.78 20.24 55.26 27.99 46.31 27.99 37.36 27.99 41.83 20.24 46.31 12.49"/><polygon points="46.31 10.25 50.78 18 55.26 25.75 46.31 25.75 37.36 25.75 41.83 18 46.31 10.25"/></g></g></svg>