<svg xmlns="http://www.w3.org/2000/svg" viewBox="0 0 129 131"><defs><style>.cls-1{fill:#303030;}.cls-2{fill:#4d4d4d;}.cls-3{opacity:0.2;}</style></defs><title>buttons</title><g id="Camada_2" data-name="Camada 2"><g id="Camada_1-2" data-name="Camada 1"><circle class="cls-1" cx="20" cy="63" r="20"/><path class="cls-2" d="M20,51A20,20,0,0,1,39.6,67a20.25,20.25,0,0,0,.4-4A20,20,0,0,0,0,63a20.25,20.25,0,0,0,.4,4A20,20,0,0,1,20,51Z"/><circle class="cls-3" cx="20" cy="71" r="20"/><circle class="cls-1" cx="109" cy="63" r="20"/><path class="cls-2" d="M109,51a20,20,0,0,1,19.6,16,20.25,20.25,0,0,0,.4-4,20,20,0,0,0-40,0,20.25,20.25,0,0,0,.4,4A20,20,0,0,1,109,51Z"/><circle class="cls-3" cx="109" cy="71" r="20"/><circle class="cls-1" cx="64" cy="103" r="20"/><path class="cls-2" d="M64,91a20,20,0,0,1,19.6,16,20.25,20.25,0,0,0,.4-4,20,20,0,0,0-40,0,20.25,20.25,0,0,0,.4,4A20,20,0,0,1,64,91Z"/><circle class="cls-3" cx="64" cy="111" r="20"/><circle class="cls-1" cx="64" cy="20" r="20"/><path class="cls-2" d="M64,8A20,20,0,0,1,83.6,24a20.25,20.25,0,0,0,.4-4,20,20,0,0,0-40,0,20.25,20.25,0,0,0,.4,4A20,20,0,0,1,64,8Z"/><circle class="cls-3" cx="64" cy="28" r="20"/><polygon class="cls-2" points="64 12.5 68.47 20.25 72.95 28 64 28 55.05 28 59.52 20.25 64 12.5"/><polygon points="64 10.26 68.47 18.01 72.95 25.76 64 25.76 55.05 25.76 59.52 18.01 64 10.26"/><polygon class="cls-2" points="9.37 65.13 17.12 60.65 24.87 56.18 24.87 65.13 24.87 74.08 17.12 69.6 9.37 65.13"/><polygon points="7.13 65.13 14.88 60.65 22.63 56.18 22.63 65.13 22.63 74.08 14.88 69.6 7.13 65.13"/><polygon class="cls-2" points="64 114.76 59.52 107.01 55.05 99.26 64 99.26 72.95 99.26 68.47 107.01 64 114.76"/><polygon points="64 117 59.52 109.25 55.05 101.5 64 101.5 72.95 101.5 68.47 109.25 64 117"/><polygon class="cls-2" points="118.63 65.13 110.88 69.6 103.13 74.08 103.13 65.13 103.13 56.18 110.88 60.65 118.63 65.13"/><polygon points="120.87 65.13 113.12 69.6 105.37 74.08 105.37 65.13 105.37 56.18 113.12 60.65 120.87 65.13"/></g></g></svg>