<svg xmlns="http://www.w3.org/2000/svg" viewBox="0 0 129 131"><defs><style>.cls-1{fill:#303030;}.cls-2{fill:#4d4d4d;}.cls-3{opacity:0.2;}.cls-4{font-size:18.41px;}.cls-4,.cls-5{fill:#ababab;font-family:ErasITC-Demi, Eras Demi ITC;font-weight:300;}.cls-5{font-size:20.3px;}</style></defs><title>right-buttons</title><g id="Camada_2" data-name="Camada 2"><g id="Camada_1-2" data-name="Camada 1"><circle class="cls-1" cx="20" cy="63" r="20"/><path class="cls-2" d="M20,51A20,20,0,0,1,39.6,67a20.25,20.25,0,0,0,.4-4A20,20,0,0,0,0,63a20.25,20.25,0,0,0,.4,4A20,20,0,0,1,20,51Z"/><circle class="cls-3" cx="20" cy="71" r="20"/><circle class="cls-1" cx="109" cy="63" r="20"/><path class="cls-2" d="M109,51a20,20,0,0,1,19.6,16,20.25,20.25,0,0,0,.4-4,20,20,0,0,0-40,0,20.25,20.25,0,0,0,.4,4A20,20,0,0,1,109,51Z"/><circle class="cls-3" cx="109" cy="71" r="20"/><circle class="cls-1" cx="64" cy="103" r="20"/><path class="cls-2" d="M64,91a20,20,0,0,1,19.6,16,20.25,20.25,0,0,0,.4-4,20,20,0,0,0-40,0,20.25,20.25,0,0,0,.4,4A20,20,0,0,1,64,91Z"/><circle class="cls-3" cx="64" cy="111" r="20"/><circle class="cls-1" cx="64" cy="20" r="20"/><path class="cls-2" d="M64,8A20,20,0,0,1,83.6,24a20.25,20.25,0,0,0,.4-4,20,20,0,0,0-40,0,20.25,20.25,0,0,0,.4,4A20,20,0,0,1,64,8Z"/><circle class="cls-3" cx="64" cy="28" r="20"/><text class="cls-4" transform="translate(58.31 29.37)">X</text><text class="cls-5" transform="translate(13.75 72.92)">Y</text><text class="cls-5" transform="translate(101.67 72.92)">A</text><text class="cls-5" transform="translate(57.36 112.92)">B</text></g></g></svg>